<?xml version="1.0" standalone="no"?>
<!DOCTYPE svg PUBLIC "-//W3C//DTD SVG 20010904//EN"
 "http://www.w3.org/TR/2001/REC-SVG-20010904/DTD/svg10.dtd">
<svg version="1.0" xmlns="http://www.w3.org/2000/svg"
 width="512.000000pt" height="512.000000pt" viewBox="0 0 512.000000 512.000000"
 preserveAspectRatio="xMidYMid meet">
<metadata>
Created by potrace 1.14, written by Peter Selinger 2001-2017
</metadata>
<g transform="translate(0.000000,512.000000) scale(0.100000,-0.100000)"
fill="#000000" stroke="none">
<path d="M2378 5115 c-1 -1 -34 -5 -73 -9 -38 -3 -97 -10 -130 -16 -33 -6 -76
-13 -95 -16 -106 -17 -413 -105 -434 -125 -6 -5 -16 -9 -23 -9 -14 0 -87 -32
-214 -95 -296 -144 -622 -405 -829 -664 -19 -24 -39 -49 -45 -55 -88 -101
-246 -369 -323 -546 -61 -142 -131 -351 -146 -443 -3 -15 -7 -35 -10 -45 -3
-9 -7 -34 -11 -56 -3 -21 -7 -41 -9 -45 -4 -6 -12 -72 -26 -201 -8 -85 -5
-454 5 -515 3 -22 13 -83 21 -135 65 -406 263 -855 510 -1160 304 -373 649
-631 1070 -798 197 -79 418 -137 604 -158 30 -3 76 -10 103 -14 48 -7 472 -5
517 4 14 2 45 7 70 10 25 4 92 16 150 27 58 12 115 23 128 25 38 7 320 103
370 125 368 165 652 369 909 654 317 350 547 828 618 1285 4 25 9 52 10 61 19
102 27 468 13 609 -69 689 -416 1325 -960 1757 -155 123 -369 253 -543 329
-44 20 -89 39 -100 44 -86 38 -365 119 -465 134 -19 3 -46 8 -60 11 -14 3 -45
8 -70 11 -25 3 -56 7 -70 10 -27 6 -456 14 -462 9z m-495 -1037 c46 -24 46
-27 47 -349 l0 -306 50 0 50 0 0 298 c0 197 4 306 11 322 23 51 87 57 126 12
22 -25 23 -31 22 -288 0 -144 0 -281 0 -304 l1 -41 48 1 47 2 1 291 c1 160 4
303 8 318 11 46 83 67 121 36 8 -6 17 -23 22 -38 15 -43 10 -703 -5 -729 -16
-29 -47 -37 -154 -37 l-88 0 0 -85 c0 -48 -1 -539 -1 -1093 l0 -1007 -30 -26
c-17 -14 -34 -25 -38 -25 -27 0 -70 25 -80 46 -8 18 -11 320 -11 1107 l0 1083
-92 -1 c-110 -2 -142 10 -156 57 -6 19 -9 177 -8 374 1 363 1 364 51 384 28
12 33 12 58 -2z m1434 -12 l28 -24 1 -1477 c0 -1405 -1 -1478 -18 -1500 -33
-42 -91 -40 -125 4 -9 12 -12 181 -13 714 l0 697 -47 0 c-262 2 -259 0 -278
132 -23 153 -26 421 -6 583 37 298 143 581 296 793 76 106 110 122 162 78z"/>
<path d="M3155 3679 c-59 -132 -110 -312 -130 -454 -19 -138 -22 -198 -18
-350 2 -93 5 -181 7 -195 3 -14 5 -28 5 -32 1 -5 39 -8 86 -8 l85 0 0 550 c0
303 -2 550 -4 550 -2 0 -16 -27 -31 -61z"/>
</g>
</svg>
